<?xml version="1.0" encoding="UTF-8" standalone="no"?>
<!-- Created with Inkscape (http://www.inkscape.org/) -->

<svg
   width="512"
   height="512"
   viewBox="0 0 135.46666 135.46667"
   version="1.1"
   id="svg1"
   inkscape:version="1.3.2 (091e20ef0f, 2023-11-25, custom)"
   sodipodi:docname="movies.svg"
   xmlns:inkscape="http://www.inkscape.org/namespaces/inkscape"
   xmlns:sodipodi="http://sodipodi.sourceforge.net/DTD/sodipodi-0.dtd"
   xmlns="http://www.w3.org/2000/svg"
   xmlns:svg="http://www.w3.org/2000/svg">
  <sodipodi:namedview
     id="namedview1"
     pagecolor="#ffffff"
     bordercolor="#000000"
     borderopacity="0.25"
     inkscape:showpageshadow="2"
     inkscape:pageopacity="0.0"
     inkscape:pagecheckerboard="0"
     inkscape:deskcolor="#d1d1d1"
     inkscape:document-units="mm"
     inkscape:zoom="0.66069171"
     inkscape:cx="6.8110435"
     inkscape:cy="57.515478"
     inkscape:window-width="1920"
     inkscape:window-height="1020"
     inkscape:window-x="0"
     inkscape:window-y="0"
     inkscape:window-maximized="1"
     inkscape:current-layer="svg1"
     showguides="true" />
  <defs
     id="defs1" />
  <path
     d="M 20.25559,-1.9965675e-6 C 15.95452,-1.9965675e-6 12.49165,3.4621411 12.49165,7.7632211 V 127.70344 c 0,4.30109 3.46287,7.76322 7.76394,7.76322 h 94.95549 c 4.30107,0 7.76393,-3.46213 7.76393,-7.76322 V 7.7632211 c 0,-4.30108 -3.46286,-7.7632230965675 -7.76393,-7.7632230965675 z M 21.573102,12.137736 h 9.999915 c 1.5361,0 2.77258,1.23648 2.77258,2.77258 v 9.999913 c 0,1.536101 -1.23648,2.773297 -2.77258,2.773297 h -9.999915 c -1.536101,0 -2.77258,-1.237196 -2.77258,-2.773297 v -9.999913 c 0,-1.5361 1.236479,-2.77258 2.77258,-2.77258 z m 82.320548,0 h 9.99992 c 1.53609,0 2.77257,1.23648 2.77257,2.77258 v 9.999913 c 0,1.536101 -1.23648,2.773297 -2.77257,2.773297 h -9.99992 c -1.5361,0 -2.77258,-1.237196 -2.77258,-2.773297 v -9.999913 c 0,-1.5361 1.23648,-2.77258 2.77258,-2.77258 z M 21.573102,43.2286 h 9.999915 c 1.5361,0 2.77258,1.236479 2.77258,2.772579 v 9.999915 c 0,1.536101 -1.23648,2.773296 -2.77258,2.773296 h -9.999915 c -1.536101,0 -2.77258,-1.237195 -2.77258,-2.773296 v -9.999915 c 0,-1.5361 1.236479,-2.772579 2.77258,-2.772579 z m 82.320548,0 h 9.99992 c 1.53609,0 2.77257,1.236479 2.77257,2.772579 v 9.999915 c 0,1.536101 -1.23648,2.773296 -2.77257,2.773296 h -9.99992 c -1.5361,0 -2.77258,-1.237195 -2.77258,-2.773296 v -9.999915 c 0,-1.5361 1.23648,-2.772579 2.77258,-2.772579 z M 21.573102,74.319465 h 9.999915 c 1.5361,0 2.77258,1.236479 2.77258,2.772579 v 9.999914 c 0,1.5361 -1.23648,2.773297 -2.77258,2.773297 h -9.999915 c -1.536101,0 -2.77258,-1.237197 -2.77258,-2.773297 v -9.999914 c 0,-1.5361 1.236479,-2.772579 2.77258,-2.772579 z m 82.320548,0 h 9.99992 c 1.53609,0 2.77257,1.236479 2.77257,2.772579 v 9.999914 c 0,1.5361 -1.23648,2.773297 -2.77257,2.773297 h -9.99992 c -1.5361,0 -2.77258,-1.237197 -2.77258,-2.773297 v -9.999914 c 0,-1.5361 1.23648,-2.772579 2.77258,-2.772579 z M 21.573102,105.41033 h 9.999915 c 1.5361,0 2.77258,1.23648 2.77258,2.77258 v 9.99991 c 0,1.5361 -1.23648,2.7733 -2.77258,2.7733 h -9.999915 c -1.536101,0 -2.77258,-1.2372 -2.77258,-2.7733 v -9.99991 c 0,-1.5361 1.236479,-2.77258 2.77258,-2.77258 z m 82.320548,0 h 9.99992 c 1.53609,0 2.77257,1.23648 2.77257,2.77258 v 9.99991 c 0,1.5361 -1.23648,2.7733 -2.77257,2.7733 h -9.99992 c -1.5361,0 -2.77258,-1.2372 -2.77258,-2.7733 v -9.99991 c 0,-1.5361 1.23648,-2.77258 2.77258,-2.77258 z"
     style="fill:#001b2e;fill-opacity:1;stroke-width:5.1;stroke-linejoin:round;paint-order:stroke fill markers"
     id="path189" />
</svg>
