<?xml version="1.0" encoding="UTF-8" standalone="no"?>
<!-- Created with Inkscape (http://www.inkscape.org/) -->

<svg
   width="512"
   height="512"
   viewBox="0 0 135.46666 135.46667"
   version="1.1"
   id="svg1"
   inkscape:version="1.3.2 (091e20ef0f, 2023-11-25, custom)"
   sodipodi:docname="search.svg"
   xmlns:inkscape="http://www.inkscape.org/namespaces/inkscape"
   xmlns:sodipodi="http://sodipodi.sourceforge.net/DTD/sodipodi-0.dtd"
   xmlns="http://www.w3.org/2000/svg"
   xmlns:svg="http://www.w3.org/2000/svg">
  <sodipodi:namedview
     id="namedview1"
     pagecolor="#ffffff"
     bordercolor="#000000"
     borderopacity="0.25"
     inkscape:showpageshadow="2"
     inkscape:pageopacity="0.0"
     inkscape:pagecheckerboard="0"
     inkscape:deskcolor="#d1d1d1"
     inkscape:document-units="mm"
     inkscape:zoom="0.93435916"
     inkscape:cx="259.53617"
     inkscape:cy="172.31061"
     inkscape:window-width="1920"
     inkscape:window-height="1020"
     inkscape:window-x="0"
     inkscape:window-y="0"
     inkscape:window-maximized="1"
     inkscape:current-layer="svg1"
     showguides="true" />
  <defs
     id="defs1" />
  <path
     id="path4"
     style="fill:#001b2e;stroke-width:5.1;stroke-linejoin:round;paint-order:stroke fill markers"
     d="M 52.360628 0 A 52.360683 52.360683 0 0 0 0 52.360628 A 52.360683 52.360683 0 0 0 52.360628 104.72126 A 52.360683 52.360683 0 0 0 84.36591 93.671802 L 124.98565 134.29154 C 126.5526 135.85849 129.07572 135.85849 130.64267 134.29154 L 134.29154 130.64267 C 135.85849 129.07572 135.85849 126.5526 134.29154 124.98565 L 93.671802 84.36591 A 52.360683 52.360683 0 0 0 104.72126 52.360628 A 52.360683 52.360683 0 0 0 52.360628 0 z M 52.360628 13.160437 A 39.200264 39.200264 0 0 1 91.560819 52.360628 A 39.200264 39.200264 0 0 1 84.273926 74.968034 A 39.200264 39.200264 0 0 1 74.968034 84.273926 A 39.200264 39.200264 0 0 1 52.360628 91.560819 A 39.200264 39.200264 0 0 1 13.160437 52.360628 A 39.200264 39.200264 0 0 1 52.360628 13.160437 z M 91.114852 87.393115 A 52.360683 52.360683 0 0 1 90.322135 88.236991 A 52.360683 52.360683 0 0 0 91.114852 87.393115 z M 88.236991 90.322135 A 52.360683 52.360683 0 0 1 87.393115 91.114852 A 52.360683 52.360683 0 0 0 88.236991 90.322135 z " />
</svg>
