<?xml version="1.0" encoding="UTF-8" standalone="no"?>
<!-- Created with Inkscape (http://www.inkscape.org/) -->

<svg
   width="512"
   height="512"
   viewBox="0 0 135.46666 135.46667"
   version="1.1"
   id="svg1"
   inkscape:version="1.3.2 (091e20ef0f, 2023-11-25, custom)"
   sodipodi:docname="bookmarks.svg"
   xmlns:inkscape="http://www.inkscape.org/namespaces/inkscape"
   xmlns:sodipodi="http://sodipodi.sourceforge.net/DTD/sodipodi-0.dtd"
   xmlns="http://www.w3.org/2000/svg"
   xmlns:svg="http://www.w3.org/2000/svg">
  <sodipodi:namedview
     id="namedview1"
     pagecolor="#ffffff"
     bordercolor="#000000"
     borderopacity="0.25"
     inkscape:showpageshadow="2"
     inkscape:pageopacity="0.0"
     inkscape:pagecheckerboard="0"
     inkscape:deskcolor="#d1d1d1"
     inkscape:document-units="mm"
     inkscape:zoom="0.66069171"
     inkscape:cx="6.8110435"
     inkscape:cy="239.14331"
     inkscape:window-width="1920"
     inkscape:window-height="1020"
     inkscape:window-x="0"
     inkscape:window-y="0"
     inkscape:window-maximized="1"
     inkscape:current-layer="svg1"
     showguides="true" />
  <defs
     id="defs1" />
  <path
     id="path116"
     style="display:inline;fill:#001b2e;fill-opacity:1;stroke-width:1;stroke-linejoin:round;paint-order:stroke fill markers"
     d="M 22.69788,8.3019169e-7 A 4.3846195,3.0067285 0 0 0 18.315965,3.0048756 V 4.4025181 15.639112 18.446585 132.46179 a 4.3846195,3.0067285 0 0 0 4.381915,3.00488 h 0.406029 a 4.3846195,3.0067285 0 0 0 3.545867,-1.2368 L 67.731558,95.479673 108.81689,134.22987 a 4.3846195,3.0067285 0 0 0 3.54587,1.2368 h 0.40603 a 4.3846195,3.0067285 0 0 0 4.38191,-3.00488 V 18.446585 15.639112 3.0048756 A 4.3846195,3.0067285 0 0 0 112.76879,8.3019169e-7 H 94.712494 78.691673 62.671743 46.650035 30.630104 Z" />
</svg>
