<?xml version="1.0" encoding="UTF-8" standalone="no"?>
<!-- Created with Inkscape (http://www.inkscape.org/) -->

<svg
   width="512"
   height="512"
   viewBox="0 0 135.46666 135.46667"
   version="1.1"
   id="svg1"
   inkscape:version="1.4.3 (0d15f75042, 2025-12-25)"
   sodipodi:docname="general.svg"
   xml:space="preserve"
   xmlns:inkscape="http://www.inkscape.org/namespaces/inkscape"
   xmlns:sodipodi="http://sodipodi.sourceforge.net/DTD/sodipodi-0.dtd"
   xmlns="http://www.w3.org/2000/svg"
   xmlns:svg="http://www.w3.org/2000/svg"><sodipodi:namedview
     id="namedview1"
     pagecolor="#ffffff"
     bordercolor="#000000"
     borderopacity="0.25"
     inkscape:showpageshadow="2"
     inkscape:pageopacity="0.0"
     inkscape:pagecheckerboard="0"
     inkscape:deskcolor="#d1d1d1"
     inkscape:document-units="mm"
     inkscape:zoom="0.67942755"
     inkscape:cx="505.57267"
     inkscape:cy="246.53107"
     inkscape:window-width="3440"
     inkscape:window-height="1412"
     inkscape:window-x="0"
     inkscape:window-y="0"
     inkscape:window-maximized="1"
     inkscape:current-layer="svg1"
     showguides="true" /><defs
     id="defs1"><inkscape:path-effect
       effect="fillet_chamfer"
       id="path-effect2"
       is_visible="true"
       lpeversion="1"
       nodesatellites_param="F,0,0,1,0,0,0,1 @ F,0,0,1,0,0,0,1 @ F,0,0,1,0,0,0,1 @ F,0,0,1,0,0,0,1 @ F,0,0,1,0,0,0,1 @ F,0,0,1,0,0,0,1 @ F,0,0,1,0,0,0,1 @ F,0,0,1,0,0,0,1"
       radius="0"
       unit="px"
       method="auto"
       mode="F"
       chamfer_steps="1"
       flexible="false"
       use_knot_distance="true"
       apply_no_radius="true"
       apply_with_radius="true"
       only_selected="false"
       hide_knots="false" /></defs><path
     d="m 85.617602,31.069229 c -1.945054,-1.828882 -4.9832,-1.735679 -6.812082,0.209373 L 27.805204,85.518493 c -1.82888,1.945049 -1.735038,4.983176 0.210015,6.812059 L 70.956408,132.707 c 1.945044,1.82886 4.98319,1.73568 6.812068,-0.20937 L 128.76878,78.257734 c 1.8289,-1.945054 1.73504,-4.983183 -0.21,-6.812055 z m -4.565334,6.049203 4.5222,4.252103 c 0.694663,0.653174 0.728058,1.738105 0.07487,2.432769 l -4.252108,4.522205 c -0.653173,0.694661 -1.738408,0.728385 -2.433074,0.07522 l -4.522191,-4.2521 c -0.694664,-0.653174 -0.727762,-1.738436 -0.07458,-2.433097 l 4.252108,-4.522207 c 0.653174,-0.694662 1.738111,-0.728055 2.432774,-0.07487 z m 37.227352,35.003895 4.52221,4.252102 c 0.69466,0.653174 0.72805,1.738098 0.0749,2.432762 l -4.25209,4.522205 c -0.65318,0.694661 -1.73841,0.728392 -2.43307,0.07523 l -4.52219,-4.252105 c -0.69469,-0.653178 -0.72777,-1.73844 -0.0747,-2.433102 l 4.2521,-4.522205 c 0.65318,-0.694663 1.73812,-0.728057 2.43278,-0.07487 z M 67.831981,51.17848 72.35418,55.430582 c 0.694664,0.653173 0.728058,1.738107 0.07488,2.432768 l -4.252111,4.522207 c -0.65317,0.694662 -1.738407,0.728385 -2.433071,0.07522 l -4.522191,-4.252106 c -0.694662,-0.653172 -0.72776,-1.738433 -0.07458,-2.433096 l 4.252108,-4.522206 c 0.653174,-0.694662 1.738112,-0.728057 2.432775,-0.07487 z m 37.227359,35.003892 4.5222,4.252105 c 0.69466,0.653172 0.72804,1.738099 0.0749,2.432759 l -4.2521,4.522205 c -0.65317,0.69466 -1.7384,0.728393 -2.43307,0.07519 l -4.522205,-4.2521 c -0.69467,-0.65318 -0.72777,-1.738438 -0.0745,-2.433102 l 4.252105,-4.522206 c 0.65316,-0.694662 1.7381,-0.728058 2.43277,-0.07487 z m -50.447646,-20.943845 4.522199,4.252104 c 0.694665,0.653173 0.728056,1.738108 0.07487,2.432767 l -4.252113,4.52221 c -0.653168,0.694657 -1.738406,0.728383 -2.433071,0.07521 L 48.00139,72.268714 C 47.306724,71.61554 47.273632,70.530274 47.9268,69.835618 l 4.252113,-4.522208 c 0.653167,-0.694659 1.738108,-0.728057 2.432772,-0.07487 z m 37.227362,35.003893 4.522199,4.25212 c 0.69467,0.65316 0.72805,1.7381 0.0749,2.43275 l -4.252121,4.52221 c -0.65317,0.69466 -1.738399,0.72838 -2.433062,0.0752 l -4.5222,-4.25209 c -0.694668,-0.65319 -0.727762,-1.73844 -0.07459,-2.43312 l 4.252113,-4.5222 c 0.65317,-0.694662 1.738108,-0.728062 2.432782,-0.0749 z m -50.447645,-20.943849 4.5222,4.252102 c 0.694665,0.653173 0.728054,1.738111 0.07487,2.432766 l -4.252106,4.522205 c -0.653168,0.694656 -1.738413,0.72839 -2.433076,0.07522 l -4.522194,-4.252103 c -0.694663,-0.653174 -0.727752,-1.738443 -0.07458,-2.433101 l 4.252106,-4.522203 c 0.653169,-0.694658 1.73811,-0.728056 2.432772,-0.07487 z m 37.227364,35.003899 4.5222,4.25209 c 0.694663,0.65319 0.728045,1.73811 0.07487,2.43275 l -4.25211,4.52223 c -0.653166,0.69464 -1.738403,0.7284 -2.433067,0.0752 l -4.5222,-4.25212 c -0.69467,-0.65318 -0.727756,-1.73843 -0.07458,-2.43309 l 4.252108,-4.52221 c 0.653168,-0.69466 1.738109,-0.72806 2.432779,-0.075 z"
     style="display:inline;fill:#001b2e;fill-opacity:1;stroke-width:3.16576;stroke-linejoin:round;paint-order:stroke fill markers"
     id="path189" /><g
     id="g1"
     transform="matrix(0.79593651,0,0,0.79593651,10.206289,0.40992202)"
     style="display:inline"><path
       d="M 10.934943,29.123659 C 4.8769591,29.123659 4.0338004e-6,34.000611 4.0338004e-6,40.058597 v 74.820543 c 0,6.05799 4.8769550661996,10.93494 10.9349389661996,10.93494 H 124.53173 c 6.05798,0 10.93494,-4.87695 10.93494,-10.93494 V 40.058597 c 0,-6.057986 -4.87696,-10.934938 -10.93494,-10.934938 z m 11.439869,10.326683 h 64.576382 c 6.477557,0 11.692658,3.835428 11.692658,8.599397 V 106.888 c 0,4.76396 -5.215101,8.59939 -11.692658,8.59939 H 22.374812 c -6.477556,0 -11.692008,-3.83543 -11.692008,-8.59939 V 48.049739 c 0,-4.763969 5.214452,-8.599397 11.692008,-8.599397 z m 95.141838,7.680517 a 7.8340881,7.8340881 0 0 1 7.83454,7.834529 7.8340881,7.8340881 0 0 1 -7.83454,7.83388 7.8340881,7.8340881 0 0 1 -7.83388,-7.83388 7.8340881,7.8340881 0 0 1 7.83388,-7.834529 z m 0,26.323264 a 7.8340881,7.8340881 0 0 1 7.83454,7.83453 7.8340881,7.8340881 0 0 1 -7.83454,7.83388 7.8340881,7.8340881 0 0 1 -7.83388,-7.83388 7.8340881,7.8340881 0 0 1 7.83388,-7.83453 z"
       style="fill:#001b2e;stroke-width:5.1;stroke-linejoin:round;paint-order:stroke fill markers"
       id="path5" /><path
       id="rect6"
       style="fill:#001b2e;stroke-width:5.1;stroke-linejoin:round;paint-order:stroke fill markers"
       d="M 86.177882,0.8690544 C 84.932105,0.85261071 83.561701,1.7080438 82.726555,3.154559 L 67.733336,29.123659 52.770657,3.207196 C 51.657131,1.2785086 49.591408,0.40104154 48.139214,1.2394662 46.68702,2.077891 46.41483,4.305486 47.528358,6.234174 l 16.811487,29.118247 c 1.112357,1.926661 3.174293,2.80427 4.626245,1.970329 8.48e-4,-4.87e-4 0.0018,-8.1e-4 0.0027,-0.0012 7.02e-4,-3e-4 0.0012,-0.001 0.002,-0.0012 0.836327,-0.355996 1.630429,-1.056834 2.186727,-2.020369 L 87.968854,6.1808859 C 89.082382,4.2521989 88.809543,2.0246034 87.35735,1.186179 86.9943,0.97657262 86.593139,0.87453619 86.177882,0.8690544 Z" /><rect
       style="fill:#001b2e;stroke-width:5.1;stroke-linejoin:round;paint-order:stroke fill markers"
       id="rect7"
       width="118.60926"
       height="14.969906"
       x="8.4287062"
       y="118.32913"
       rx="4.4615521"
       ry="4.0199614" /></g></svg>
