<?xml version="1.0" encoding="UTF-8" standalone="no"?>
<!-- Created with Inkscape (http://www.inkscape.org/) -->

<svg
   width="32"
   height="32"
   viewBox="0 0 32 32"
   version="1.1"
   id="svg1"
   xml:space="preserve"
   inkscape:version="1.3.2 (091e20ef0f, 2023-11-25, custom)"
   sodipodi:docname="star.svg"
   xmlns:inkscape="http://www.inkscape.org/namespaces/inkscape"
   xmlns:sodipodi="http://sodipodi.sourceforge.net/DTD/sodipodi-0.dtd"
   xmlns="http://www.w3.org/2000/svg"
   xmlns:svg="http://www.w3.org/2000/svg"><sodipodi:namedview
     id="namedview1"
     pagecolor="#505050"
     bordercolor="#eeeeee"
     borderopacity="1"
     inkscape:showpageshadow="0"
     inkscape:pageopacity="0"
     inkscape:pagecheckerboard="0"
     inkscape:deskcolor="#505050"
     inkscape:document-units="px"
     inkscape:zoom="16"
     inkscape:cx="8.40625"
     inkscape:cy="16.5"
     inkscape:window-width="1920"
     inkscape:window-height="1018"
     inkscape:window-x="0"
     inkscape:window-y="0"
     inkscape:window-maximized="1"
     inkscape:current-layer="layer1" /><defs
     id="defs1" /><g
     inkscape:label="Layer 1"
     inkscape:groupmode="layer"
     id="layer1"><path
       sodipodi:type="star"
       style="fill:#ff6c00;stroke-width:0;fill-opacity:1"
       id="path1"
       inkscape:flatsided="false"
       sodipodi:sides="5"
       sodipodi:cx="9.2300367"
       sodipodi:cy="4.7886977"
       sodipodi:r1="14.578275"
       sodipodi:r2="6.2540798"
       sodipodi:arg1="-1.5707963"
       sodipodi:arg2="-0.9424778"
       inkscape:rounded="0.15"
       inkscape:randomized="0"
       d="m 9.2300371,-9.789577 c 1.5305699,0 2.4377989,8.6189716 3.6760559,9.51861785 1.238256,0.89964625 9.715735,-0.90093555 10.188707,0.5547226 0.472972,1.45565815 -7.443808,4.98189305 -7.91678,6.43755115 -0.472972,1.4556582 3.859168,8.9618094 2.620911,9.8614554 -1.238256,0.899646 -7.038325,-5.539992 -8.5688942,-5.539992 -1.5305696,-1e-6 -7.3306385,6.439638 -8.56889527,5.539991 C -0.57711523,15.683123 3.7550253,8.1769728 3.2820534,6.7213147 2.8090814,5.2656565 -5.1076983,1.7394209 -4.6347263,0.28376271 -4.1617543,-1.1718954 4.3157241,0.62868704 5.5539808,-0.27095912 6.7922377,-1.1706053 7.6994676,-9.789577 9.2300371,-9.789577 Z"
       inkscape:transform-center-y="-1.5916915"
       transform="matrix(1.1523118,0,0,1.1523118,5.3641196,12.036402)" /></g></svg>
